<svg width="28" height="28" viewBox="0 0 28 28" fill="none" xmlns="http://www.w3.org/2000/svg">
<g id="Iconly/Light/Profile">
<g id="Profile">
<path id="Ellipse_736" fill-rule="evenodd" clip-rule="evenodd" d="M13.5088 14.0654C16.5874 14.0654 19.0832 11.5697 19.0832 8.49103C19.0832 5.41239 16.5874 2.91666 13.5088 2.91666C10.4301 2.91666 7.93442 5.41239 7.93442 8.49103C7.93442 11.5697 10.4301 14.0654 13.5088 14.0654Z" stroke="#200E32" stroke-width="1.5" stroke-linecap="round" stroke-linejoin="round"/>
<path id="Path_33945" fill-rule="evenodd" clip-rule="evenodd" d="M4.66668 21.8183C4.66519 21.4264 4.75283 21.0393 4.92298 20.6863C5.45692 19.6184 6.96264 19.0524 8.21207 18.7961C9.11315 18.6039 10.0267 18.4754 10.9459 18.4117C12.6476 18.2622 14.3593 18.2622 16.061 18.4117C16.9801 18.4761 17.8936 18.6046 18.7948 18.7961C20.0443 19.0524 21.55 19.565 22.0839 20.6863C22.4261 21.4059 22.4261 22.2413 22.0839 22.9609C21.55 24.0822 20.0443 24.5948 18.7948 24.8404C17.8948 25.0406 16.9809 25.1727 16.061 25.2355C14.6759 25.3529 13.2843 25.3743 11.8963 25.2996C11.5759 25.2996 11.2662 25.2996 10.9459 25.2355C10.0294 25.1735 9.11904 25.0414 8.22275 24.8404C6.96264 24.5948 5.4676 24.0822 4.92298 22.9609C4.7537 22.6038 4.66614 22.2135 4.66668 21.8183Z" stroke="#200E32" stroke-width="1.5" stroke-linecap="round" stroke-linejoin="round"/>
</g>
</g>
</svg>
