<svg width="25" height="26" viewBox="0 0 25 26" fill="none" xmlns="http://www.w3.org/2000/svg">
<path d="M8.7756 24.4053V20.4303C8.7756 19.4156 9.60421 18.593 10.6264 18.593H14.3628C14.8536 18.593 15.3244 18.7866 15.6715 19.1311C16.0185 19.4757 16.2135 19.943 16.2135 20.4303V24.4053C16.2104 24.8272 16.3771 25.2328 16.6765 25.5322C16.9759 25.8316 17.3833 26 17.8082 26H20.3574C21.5479 26.0031 22.6908 25.5357 23.5337 24.701C24.3767 23.8664 24.8504 22.7331 24.8504 21.5512V10.2269C24.8504 9.2722 24.4241 8.36659 23.6864 7.75407L15.0146 0.87863C13.5062 -0.32687 11.3448 -0.287947 9.8814 0.971073L1.40751 7.75407C0.634953 8.34854 0.173209 9.25683 0.150391 10.2269V21.5396C0.150391 24.003 2.16199 26 4.64342 26H7.13437C8.01699 26 8.73429 25.2931 8.74068 24.4169L8.7756 24.4053Z" fill="#CDEB45"/>
</svg>
