<svg width="28" height="28" viewBox="0 0 28 28" fill="none" xmlns="http://www.w3.org/2000/svg">
<g id="Iconly/Light/Activity">
<g id="Activity">
<path id="Path_33966" d="M8.45233 17.2451L11.9443 12.7065L15.9275 15.8355L19.3448 11.4251" stroke="#200E32" stroke-width="1.5" stroke-linecap="round" stroke-linejoin="round"/>
<path id="Ellipse_741" fill-rule="evenodd" clip-rule="evenodd" d="M23.328 7.14284C24.5665 7.14284 25.5705 6.13881 25.5705 4.90028C25.5705 3.66174 24.5665 2.65771 23.328 2.65771C22.0894 2.65771 21.0854 3.66174 21.0854 4.90028C21.0854 6.13881 22.0894 7.14284 23.328 7.14284Z" stroke="#200E32" stroke-width="1.5" stroke-linecap="round" stroke-linejoin="round"/>
<path id="Path" d="M17.4119 3.64017H8.93287C5.41952 3.64017 3.24103 6.12834 3.24103 9.64169V19.0711C3.24103 22.5845 5.3768 25.062 8.93287 25.062H18.971C22.4844 25.062 24.6628 22.5845 24.6628 19.0711V10.8591" stroke="#200E32" stroke-width="1.5" stroke-linecap="round" stroke-linejoin="round"/>
</g>
</g>
</svg>
